<?xml version="1.0" encoding="utf-8"?>
<!-- Generator: Adobe Illustrator 23.0.4, SVG Export Plug-In . SVG Version: 6.00 Build 0)  -->
<svg version="1.1" id="Layer_1" xmlns="http://www.w3.org/2000/svg" xmlns:xlink="http://www.w3.org/1999/xlink" x="0px" y="0px"
	 viewBox="0 0 306.96 60" style="enable-background:new 0 0 306.96 60;" xml:space="preserve">
<style type="text/css">
	.st0{fill:#FFFFFF;}
</style>
<path class="st0" d="M30,0.25c-16.57,0-30,13.43-30,30c0,16.57,13.43,30,30,30c16.57,0,30-13.43,30-30C60,13.68,46.57,0.25,30,0.25z
	 M23.74,11.81c2.08-1.36,4.49-2.08,6.98-2.08c7.04,0,12.77,5.42,12.77,12.46c0,0.55-0.45,0.99-0.99,0.99c-0.55,0-1-0.45-1-0.99
	c0-5.94-4.84-10.47-10.78-10.47c-2.1,0-4.14,0.61-5.89,1.75c-0.46,0.3-1.08,0.17-1.38-0.29C23.15,12.73,23.28,12.11,23.74,11.81z
	 M19.94,49.29c0,0.55-0.45,1-0.99,1c-0.55,0-0.99-0.45-0.99-1v-26.8c0-2.89,0.95-5.62,2.73-7.89c0.34-0.43,0.96-0.51,1.4-0.17
	c0.43,0.34,0.51,0.97,0.17,1.4c-1.51,1.92-2.31,4.22-2.31,6.66V49.29z M23.87,49.3c0,0.55-0.45,0.99-1,0.99
	c-0.55,0-0.99-0.45-0.99-0.99v-26.8c0-4.87,3.97-8.84,8.84-8.84c4.88,0,8.84,3.97,8.84,8.84v6.43c0,4.87-3.97,8.84-8.84,8.84
	c-0.55,0-1-0.45-1-0.99c0-0.55,0.45-0.99,1-0.99c3.78,0,6.85-3.07,6.85-6.85v-6.43c0-3.78-3.07-6.85-6.85-6.85
	c-3.78,0-6.85,3.07-6.85,6.85V49.3z M33.42,21.36c-0.21-0.51,0.03-1.09,0.53-1.3c0.51-0.21,1.09,0.03,1.3,0.53
	c0.25,0.6,0.38,1.24,0.38,1.9v6.43c0,2.71-2.21,4.92-4.92,4.92c-0.55,0-0.99-0.45-0.99-0.99c0-0.55,0.45-0.99,0.99-0.99
	c1.62,0,2.93-1.31,2.93-2.93v-6.43C33.65,22.1,33.58,21.72,33.42,21.36z M29.73,28.7v-6.11c0-0.55,0.45-0.99,0.99-0.99
	c0.55,0,0.99,0.45,0.99,0.99v6.11c0,0.55-0.45,0.99-0.99,0.99C30.17,29.69,29.73,29.25,29.73,28.7z M32.52,18.86
	c-0.11,0.54-0.64,0.88-1.18,0.77c-0.2-0.04-0.41-0.06-0.62-0.06c-1.62,0-2.93,1.31-2.93,2.93v7.04c0,0.55-0.45,0.99-0.99,0.99
	c-0.55,0-0.99-0.45-0.99-0.99v-7.04c0-2.71,2.21-4.92,4.92-4.92c0.35,0,0.69,0.04,1.03,0.11C32.29,17.8,32.63,18.33,32.52,18.86z
	 M43.49,28.92c0,7.04-5.73,12.76-12.77,12.76c-0.99,0-1.97-0.12-2.93-0.34v7.95c0,0.55-0.45,0.99-0.99,0.99
	c-0.55,0-0.99-0.45-0.99-0.99V33.43c0-0.55,0.45-0.99,0.99-0.99c0.55,0,0.99,0.45,0.99,0.99v5.86c0.95,0.27,1.93,0.41,2.93,0.41
	c5.94,0,10.78-4.83,10.78-10.77v-2.75c0-0.55,0.45-0.99,0.99-0.99c0.55,0,1,0.45,1,0.99V28.92z"/>
<g>
	<path class="st0" d="M76.26,29.28c0.93,0.28,2,0.33,3.43,0.33c5.27,0,8.46-2.65,8.46-7.1c0-4.34-2.96-6.58-7.85-6.58
		c-1.92,0-3.29,0.16-4.04,0.36V29.28z M69.28,11.28c2.58-0.47,6.07-0.8,10.76-0.8c5.13,0,8.84,1.08,11.28,3.15
		c2.31,1.91,3.76,4.95,3.76,8.57c0,3.67-1.12,6.66-3.24,8.73c-2.86,2.82-7.19,4.2-12.16,4.2c-1.32,0-2.47-0.06-3.43-0.31v14.68
		h-6.97"/>
	<path class="st0" d="M113.57,32.54c0.05-2.57-1.07-6.85-5.77-6.85c-4.34,0-6.15,3.98-6.45,6.85H113.57z M101.35,37.48
		c0.16,5.06,4.04,7.24,8.57,7.24c3.24,0,5.52-0.53,7.71-1.24l1.02,4.81c-2.39,1.02-5.71,1.77-9.72,1.77
		c-9.03,0-14.33-5.55-14.33-14.12c0-7.76,4.69-15.06,13.59-15.06c9.03,0,12,7.46,12,13.6c0,1.33-0.11,2.38-0.22,3.01"/>
	<path class="st0" d="M123.26,30.55c0-3.81-0.05-6.58-0.22-9.07h6.04l0.3,5.31h0.16c1.37-3.9,4.64-5.92,7.66-5.92
		c0.66,0,1.1,0.05,1.65,0.17v6.63c-0.63-0.14-1.26-0.19-2.11-0.19c-3.32,0-5.66,2.13-6.29,5.36c-0.11,0.61-0.17,1.35-0.17,2.13
		v14.54h-7.03"/>
	<path class="st0" d="M144.57,49.51V26.79h-3.76v-5.31h3.76v-1.19c0-3.62,0.96-7.24,3.35-9.54c2.06-1.96,4.83-2.71,7.28-2.71
		c1.89,0,3.35,0.36,4.45,0.69l-0.44,5.47c-0.8-0.28-1.73-0.53-3.05-0.53c-3.49,0-4.64,2.93-4.64,6.39v1.41h6.07v5.31h-5.99v22.72"/>
	<path class="st0" d="M165.38,35.52c0,5.42,2.72,9.51,6.95,9.51c3.98,0,6.78-3.93,6.78-9.62c0-4.37-1.92-9.42-6.75-9.42
		C167.42,25.99,165.38,30.88,165.38,35.52 M186.36,35.25c0,10.28-7.19,14.87-14.28,14.87c-7.8,0-13.92-5.39-13.92-14.4
		c0-9.2,5.98-14.84,14.39-14.84C180.84,20.87,186.36,26.73,186.36,35.25"/>
	<path class="st0" d="M189.49,30.55c0-3.81-0.08-6.58-0.25-9.07h6.04l0.3,5.31h0.19c1.35-3.9,4.61-5.92,7.63-5.92
		c0.69,0,1.1,0.05,1.68,0.17v6.63c-0.63-0.14-1.26-0.19-2.11-0.19c-3.32,0-5.66,2.13-6.29,5.36c-0.11,0.61-0.17,1.35-0.17,2.13
		v14.54h-7.03"/>
	<path class="st0" d="M207.83,29.83c0-3.21-0.14-5.92-0.25-8.35h6.01l0.33,4.17h0.19c1.29-2.18,3.82-4.78,8.54-4.78
		c3.65,0,6.51,2.07,7.72,5.17h0.11c0.96-1.55,2.11-2.71,3.38-3.51c1.59-1.08,3.38-1.66,5.71-1.66c4.56,0,9.25,3.18,9.25,12.13v16.5
		h-6.86V34.03c0-4.64-1.59-7.41-4.97-7.41c-2.39,0-4.15,1.71-4.89,3.73c-0.25,0.64-0.36,1.55-0.36,2.35v16.8h-6.84V33.28
		c0-3.9-1.54-6.66-4.83-6.66c-2.61,0-4.39,2.07-5.05,3.95c-0.25,0.77-0.36,1.55-0.36,2.35v16.58h-6.84"/>
	<path class="st0" d="M252.84,21.48h7.03v28.02h-7.03V21.48z M260.31,13.69c0,2.07-1.54,3.79-3.98,3.79c-2.33,0-3.87-1.71-3.87-3.79
		c0-2.18,1.59-3.84,3.93-3.84C258.77,9.85,260.28,11.51,260.31,13.69"/>
	<path class="st0" d="M285.15,48.65c-1.48,0.66-4.39,1.41-7.85,1.41c-8.7,0-14.36-5.61-14.36-14.29c0-8.4,5.71-14.9,15.49-14.9
		c2.55,0,5.19,0.58,6.81,1.27l-1.26,5.33c-1.15-0.55-2.8-1.08-5.33-1.08c-5.35,0-8.57,3.95-8.51,9.09c0,5.72,3.73,9.01,8.51,9.01
		c2.42,0,4.17-0.52,5.55-1.11"/>
	<path class="st0" d="M288.64,42.96c1.57,0.97,4.59,2.07,7.08,2.07c3.07,0,4.45-1.33,4.45-3.18c0-1.91-1.15-2.82-4.56-4.06
		c-5.41-1.85-7.66-4.86-7.66-8.18c0-4.95,4.03-8.73,10.49-8.73c3.1,0,5.79,0.75,7.47,1.66l-1.46,4.95c-1.13-0.69-3.43-1.6-5.88-1.6
		c-2.5,0-3.87,1.27-3.87,2.99c0,1.77,1.29,2.57,4.83,3.9c5.11,1.8,7.39,4.37,7.41,8.51c0,5.11-3.9,8.79-11.29,8.79
		c-3.38,0-6.4-0.8-8.46-1.93"/>
</g>
</svg>
